<svg xmlns="http://www.w3.org/2000/svg" width="229.766" height="230.188" viewBox="0 0 229.766 230.188">
  <g id="Grupo_6" data-name="Grupo 6" transform="translate(-101.103 -1616.88)">
    <path id="Trazado_54" data-name="Trazado 54" d="M330.869,1847.069V1704.579H199.328v-32.893H330.869v-10.964H188.364v54.806H319.92V1836.12h-175.4v10.948Z" fill="#ff521d"/>
    <path id="Trazado_55" data-name="Trazado 55" d="M330.869,1649.757v-10.948H166.449v98.648H297.99v76.735H144.522v10.964H308.956v-98.664H177.415v-76.735Z" fill="#ff521d"/>
    <path id="Trazado_56" data-name="Trazado 56" d="M330.869,1627.845V1616.88H144.522v142.505H276.063v32.877H144.522v10.964H287.027v-54.806H155.485V1627.845Z" fill="#ff521d"/>
    <path id="Trazado_57" data-name="Trazado 57" d="M121.281,1670.961a5.665,5.665,0,0,1-1.564.458,22.284,22.284,0,0,1-2.515.206q-1.613.063-4.618.064-2.941,0-4.571-.064a20.192,20.192,0,0,1-2.545-.222,7.041,7.041,0,0,1-1.58-.442,4.615,4.615,0,0,1-2.785-4.651,5,5,0,0,1,1.234-3.541,3.8,3.8,0,0,1,1.249-.884,6.237,6.237,0,0,1,1.8-.444c.726-.084,1.671-.137,2.829-.158v1.36a22.9,22.9,0,0,0-2.515.11,5.575,5.575,0,0,0-1.484.348,2.671,2.671,0,0,0-.934.65,3.711,3.711,0,0,0-.886,2.591,3.9,3.9,0,0,0,.522,2.12,3.5,3.5,0,0,0,1.566,1.3,5,5,0,0,0,1.3.332q.791.111,2.308.158t4.492.047q2.975,0,4.507-.047a22.645,22.645,0,0,0,2.308-.158,5.51,5.51,0,0,0,1.314-.332,3.521,3.521,0,0,0,1.532-1.3,3.888,3.888,0,0,0,.523-2.12,3.769,3.769,0,0,0-.885-2.623,2.642,2.642,0,0,0-.95-.648,5.941,5.941,0,0,0-1.58-.35q-1.012-.108-2.689-.14v-1.33a25.938,25.938,0,0,1,3,.142,7.2,7.2,0,0,1,1.914.458,3.8,3.8,0,0,1,1.282.888,5.194,5.194,0,0,1,1.2,3.571,4.617,4.617,0,0,1-2.783,4.651" fill="#ff521d"/>
    <rect id="Rectángulo_9" data-name="Rectángulo 9" width="22.328" height="1.36" transform="translate(101.42 1655.432)" fill="#ff521d"/>
    <path id="Trazado_58" data-name="Trazado 58" d="M121.281,1650.151a5.66,5.66,0,0,1-1.564.458,22.974,22.974,0,0,1-2.515.208q-1.613.062-4.618.062-2.941,0-4.571-.062a20.55,20.55,0,0,1-2.545-.224,7.041,7.041,0,0,1-1.58-.442,4.614,4.614,0,0,1-2.785-4.649,5,5,0,0,1,1.234-3.543,3.812,3.812,0,0,1,1.249-.884,6.273,6.273,0,0,1,1.8-.444c.726-.083,1.671-.137,2.829-.158v1.36a22.909,22.909,0,0,0-2.515.11,5.57,5.57,0,0,0-1.484.349,2.679,2.679,0,0,0-.934.648,3.717,3.717,0,0,0-.886,2.594,3.889,3.889,0,0,0,.522,2.118,3.5,3.5,0,0,0,1.566,1.3,5,5,0,0,0,1.3.332,22.619,22.619,0,0,0,2.308.158q1.52.048,4.492.048t4.507-.048a22.092,22.092,0,0,0,2.308-.158,5.509,5.509,0,0,0,1.314-.332,3.519,3.519,0,0,0,1.532-1.3,3.88,3.88,0,0,0,.523-2.118,3.774,3.774,0,0,0-.885-2.626,2.68,2.68,0,0,0-.95-.648,5.947,5.947,0,0,0-1.58-.349q-1.012-.108-2.689-.14v-1.33a25.938,25.938,0,0,1,3,.142,7.189,7.189,0,0,1,1.914.46,3.75,3.75,0,0,1,1.282.886,5.2,5.2,0,0,1,1.2,3.573,4.616,4.616,0,0,1-2.783,4.649" fill="#ff521d"/>
    <path id="Trazado_59" data-name="Trazado 59" d="M101.42,1635.982v-1.36h21.062v-4.4h1.266v5.755Z" fill="#ff521d"/>
    <path id="Trazado_60" data-name="Trazado 60" d="M123.321,1625.183a4.6,4.6,0,0,1-2.04,1.691,6.056,6.056,0,0,1-1.614.474,21.5,21.5,0,0,1-2.576.222q-1.629.065-4.507.062-3.13,0-4.729-.062a21.319,21.319,0,0,1-2.449-.206,5.7,5.7,0,0,1-1.518-.458,4.386,4.386,0,0,1-2.057-1.739,5.429,5.429,0,0,1-.728-2.91,5.291,5.291,0,0,1,.744-2.941,4.7,4.7,0,0,1,2.1-1.74,6.612,6.612,0,0,1,1.535-.428,21.531,21.531,0,0,1,2.465-.2q1.6-.064,4.634-.064c2.086,0,3.665.021,4.729.064a21,21,0,0,1,2.45.2,5.716,5.716,0,0,1,1.518.46,4.651,4.651,0,0,1,2.783,4.649,5.215,5.215,0,0,1-.743,2.926m-2.64-6.343a4.666,4.666,0,0,0-1.282-.364,21.777,21.777,0,0,0-2.245-.158q-1.5-.045-4.57-.046-2.973,0-4.475.046c-1,.032-1.76.086-2.277.158a4.727,4.727,0,0,0-1.314.364,3.5,3.5,0,0,0-1.549,1.25,3.862,3.862,0,0,0-.538,2.167,3.961,3.961,0,0,0,.523,2.15,3.526,3.526,0,0,0,1.534,1.3,5.533,5.533,0,0,0,1.28.331,20.879,20.879,0,0,0,2.261.158q1.518.048,4.555.048t4.554-.048a20.838,20.838,0,0,0,2.261-.158,5.552,5.552,0,0,0,1.282-.331,3.642,3.642,0,0,0,1.55-1.3,3.883,3.883,0,0,0,.537-2.15,3.4,3.4,0,0,0-2.087-3.417" fill="#ff521d"/>
  </g>
</svg>
