<svg xmlns="http://www.w3.org/2000/svg" width="229.766" height="230.19" viewBox="0 0 229.766 230.19">
  <g id="Grupo_5" data-name="Grupo 5" transform="translate(-101.103 -1190.846)">
    <rect id="Rect치ngulo_7" data-name="Rect치ngulo 7" width="10.964" height="230.189" transform="translate(319.905 1190.846)" fill="#ea0303"/>
    <path id="Trazado_47" data-name="Trazado 47" d="M308.94,1190.847v230.189H297.975V1311.424H166.434V1190.847H177.4v109.612H297.975V1190.847Z" fill="#ea0303"/>
    <path id="Trazado_48" data-name="Trazado 48" d="M287.011,1190.847v98.648H188.363v-98.648h10.966v87.683h76.735v-87.683Z" fill="#ea0303"/>
    <path id="Trazado_49" data-name="Trazado 49" d="M287.011,1322.388v98.648H276.064v-87.683H144.523V1190.847H155.47v131.541Z" fill="#ea0303"/>
    <path id="Trazado_50" data-name="Trazado 50" d="M121.281,1244.928a5.66,5.66,0,0,1-1.564.458,22.284,22.284,0,0,1-2.515.206q-1.613.064-4.618.064-2.941,0-4.571-.064a20.008,20.008,0,0,1-2.545-.222,7.034,7.034,0,0,1-1.58-.442,4.614,4.614,0,0,1-2.785-4.649,5,5,0,0,1,1.234-3.543,3.8,3.8,0,0,1,1.249-.884,6.273,6.273,0,0,1,1.8-.444c.726-.083,1.671-.137,2.829-.158v1.36a22.909,22.909,0,0,0-2.515.11,5.5,5.5,0,0,0-1.484.35,2.667,2.667,0,0,0-.934.648,3.714,3.714,0,0,0-.886,2.593,3.887,3.887,0,0,0,.522,2.118,3.5,3.5,0,0,0,1.566,1.3,5.081,5.081,0,0,0,1.3.332q.791.109,2.308.158t4.492.047q2.975,0,4.507-.047a22.972,22.972,0,0,0,2.308-.158,5.6,5.6,0,0,0,1.314-.332,3.522,3.522,0,0,0,1.532-1.3,3.878,3.878,0,0,0,.523-2.118,3.771,3.771,0,0,0-.885-2.625,2.667,2.667,0,0,0-.95-.648,5.942,5.942,0,0,0-1.58-.35q-1.012-.107-2.689-.14v-1.33a25.938,25.938,0,0,1,3,.142,7.151,7.151,0,0,1,1.914.46,3.764,3.764,0,0,1,1.282.886,5.2,5.2,0,0,1,1.2,3.573,4.615,4.615,0,0,1-2.783,4.649" fill="#ea0303"/>
    <rect id="Rect치ngulo_8" data-name="Rect치ngulo 8" width="22.328" height="1.36" transform="translate(101.42 1229.399)" fill="#ea0303"/>
    <path id="Trazado_51" data-name="Trazado 51" d="M121.281,1224.118a5.731,5.731,0,0,1-1.564.46,23.313,23.313,0,0,1-2.515.206q-1.613.061-4.618.062-2.941,0-4.571-.062a20.812,20.812,0,0,1-2.545-.222,7.148,7.148,0,0,1-1.58-.444,4.614,4.614,0,0,1-2.785-4.649,5,5,0,0,1,1.234-3.541,3.8,3.8,0,0,1,1.249-.886,6.214,6.214,0,0,1,1.8-.442c.726-.085,1.671-.139,2.829-.158v1.36a22.428,22.428,0,0,0-2.515.11,5.5,5.5,0,0,0-1.484.348,2.692,2.692,0,0,0-.934.648,3.713,3.713,0,0,0-.886,2.593,3.9,3.9,0,0,0,.522,2.119,3.523,3.523,0,0,0,1.566,1.3,5.087,5.087,0,0,0,1.3.33,22.655,22.655,0,0,0,2.308.158q1.52.048,4.492.048t4.507-.048a22.126,22.126,0,0,0,2.308-.158,5.61,5.61,0,0,0,1.314-.33,3.542,3.542,0,0,0,1.532-1.3,3.886,3.886,0,0,0,.523-2.119,3.771,3.771,0,0,0-.885-2.625,2.667,2.667,0,0,0-.95-.648,5.87,5.87,0,0,0-1.58-.348q-1.012-.111-2.689-.142v-1.328a25.505,25.505,0,0,1,3,.142,7.116,7.116,0,0,1,1.914.458,3.762,3.762,0,0,1,1.282.886,5.2,5.2,0,0,1,1.2,3.573,4.615,4.615,0,0,1-2.783,4.649" fill="#ea0303"/>
    <path id="Trazado_52" data-name="Trazado 52" d="M101.42,1209.95v-1.36h21.062v-4.4h1.266v5.755Z" fill="#ea0303"/>
    <path id="Trazado_53" data-name="Trazado 53" d="M123.321,1199.149a4.6,4.6,0,0,1-2.04,1.692,6.015,6.015,0,0,1-1.614.475,21.5,21.5,0,0,1-2.576.222q-1.629.063-4.507.062-3.13,0-4.729-.062a21.319,21.319,0,0,1-2.449-.206,5.662,5.662,0,0,1-1.518-.459,4.388,4.388,0,0,1-2.057-1.74,5.42,5.42,0,0,1-.728-2.91,5.294,5.294,0,0,1,.744-2.941,4.7,4.7,0,0,1,2.1-1.738,6.564,6.564,0,0,1,1.535-.429,21.715,21.715,0,0,1,2.465-.2q1.6-.062,4.634-.063c2.086,0,3.665.022,4.729.063a21.182,21.182,0,0,1,2.45.2,5.641,5.641,0,0,1,1.518.461,4.65,4.65,0,0,1,2.783,4.647,5.206,5.206,0,0,1-.743,2.926m-2.64-6.341a4.666,4.666,0,0,0-1.282-.364,21.465,21.465,0,0,0-2.245-.158q-1.5-.048-4.57-.048-2.973,0-4.475.048a22.747,22.747,0,0,0-2.277.158,4.727,4.727,0,0,0-1.314.364,3.488,3.488,0,0,0-1.549,1.25,3.859,3.859,0,0,0-.538,2.165,3.952,3.952,0,0,0,.523,2.15,3.515,3.515,0,0,0,1.534,1.3,5.489,5.489,0,0,0,1.28.332,20.879,20.879,0,0,0,2.261.158q1.518.048,4.555.048t4.554-.048A20.838,20.838,0,0,0,119.4,1200a5.507,5.507,0,0,0,1.282-.332,3.631,3.631,0,0,0,1.55-1.3,3.874,3.874,0,0,0,.537-2.15,3.4,3.4,0,0,0-2.087-3.415" fill="#ea0303"/>
  </g>
</svg>
