<svg xmlns="http://www.w3.org/2000/svg" width="427.078" height="230.204" viewBox="0 0 427.078 230.204">
  <g id="Grupo_11" data-name="Grupo 11" transform="translate(-101.103 -3157.267)">
    <path id="Trazado_90" data-name="Trazado 90" d="M341.834,3387.471H528.181V3157.284H341.834Zm175.382-10.965H352.782V3168.248H517.216Z" fill="#63fdcb"/>
    <path id="Trazado_91" data-name="Trazado 91" d="M363.745,3365.559H506.25V3179.211H363.745Zm131.541-10.964H374.709V3190.161H495.286Z" fill="#63fdcb"/>
    <path id="Trazado_92" data-name="Trazado 92" d="M385.675,3343.631h98.648V3201.125H385.675Zm87.7-10.965H396.64V3212.09h76.735Z" fill="#63fdcb"/>
    <path id="Trazado_93" data-name="Trazado 93" d="M330.869,3354.579v10.963H144.522v-10.963h87.683v-164.42H144.522v-10.965H243.17v175.384Z" fill="#63fdcb"/>
    <rect id="Rect치ngulo_14" data-name="Rect치ngulo 14" width="186.347" height="10.964" transform="translate(144.522 3376.506)" fill="#63fdcb"/>
    <path id="Trazado_94" data-name="Trazado 94" d="M330.869,3332.666v10.948H254.134V3168.231H144.522v-10.964H265.1v175.4Z" fill="#63fdcb"/>
    <path id="Trazado_95" data-name="Trazado 95" d="M221.24,3201.125v142.489H144.523v-10.948h65.77V3212.089h-65.77v-10.964Z" fill="#63fdcb"/>
    <path id="Trazado_96" data-name="Trazado 96" d="M121.281,3211.355a5.589,5.589,0,0,1-1.564.46,22.547,22.547,0,0,1-2.515.206q-1.613.062-4.618.062-2.941,0-4.571-.062a20.6,20.6,0,0,1-2.545-.222,7.036,7.036,0,0,1-1.58-.444,4.612,4.612,0,0,1-2.785-4.649,5,5,0,0,1,1.234-3.541,3.828,3.828,0,0,1,1.249-.886,6.213,6.213,0,0,1,1.8-.442c.726-.085,1.671-.139,2.829-.158v1.36a22.433,22.433,0,0,0-2.515.11,5.5,5.5,0,0,0-1.484.348,2.692,2.692,0,0,0-.934.648,3.716,3.716,0,0,0-.886,2.593,3.9,3.9,0,0,0,.522,2.12,3.522,3.522,0,0,0,1.566,1.3,5.044,5.044,0,0,0,1.3.331,22.886,22.886,0,0,0,2.308.159q1.52.045,4.492.046t4.507-.046a22.344,22.344,0,0,0,2.308-.159,5.559,5.559,0,0,0,1.314-.331,3.54,3.54,0,0,0,1.532-1.3,3.887,3.887,0,0,0,.523-2.12,3.773,3.773,0,0,0-.885-2.625,2.652,2.652,0,0,0-.95-.647,5.9,5.9,0,0,0-1.58-.349q-1.012-.111-2.689-.142v-1.328a25.5,25.5,0,0,1,3,.142,7.111,7.111,0,0,1,1.914.458,3.762,3.762,0,0,1,1.282.887,5.191,5.191,0,0,1,1.2,3.572,4.614,4.614,0,0,1-2.783,4.649" fill="#63fdcb"/>
    <rect id="Rect치ngulo_15" data-name="Rect치ngulo 15" width="22.328" height="1.361" transform="translate(101.42 3195.827)" fill="#63fdcb"/>
    <path id="Trazado_97" data-name="Trazado 97" d="M121.281,3190.547a5.7,5.7,0,0,1-1.564.458,22.488,22.488,0,0,1-2.515.206q-1.613.062-4.618.062-2.941,0-4.571-.062a20.219,20.219,0,0,1-2.545-.222,7.146,7.146,0,0,1-1.58-.442,4.616,4.616,0,0,1-2.785-4.649,5,5,0,0,1,1.234-3.543,3.8,3.8,0,0,1,1.249-.885,6.275,6.275,0,0,1,1.8-.443c.726-.085,1.671-.138,2.829-.158v1.36a22.9,22.9,0,0,0-2.515.11,5.5,5.5,0,0,0-1.484.348,2.692,2.692,0,0,0-.934.648,3.718,3.718,0,0,0-.886,2.593,3.891,3.891,0,0,0,.522,2.119,3.5,3.5,0,0,0,1.566,1.3,5.007,5.007,0,0,0,1.3.33,22.827,22.827,0,0,0,2.308.16q1.52.045,4.492.046t4.507-.046a22.285,22.285,0,0,0,2.308-.16,5.515,5.515,0,0,0,1.314-.33,3.522,3.522,0,0,0,1.532-1.3,3.883,3.883,0,0,0,.523-2.119,3.768,3.768,0,0,0-.885-2.624,2.642,2.642,0,0,0-.95-.648,5.917,5.917,0,0,0-1.58-.349q-1.012-.111-2.689-.142v-1.328a25.5,25.5,0,0,1,3,.142,7.2,7.2,0,0,1,1.914.458,3.766,3.766,0,0,1,1.282.887,5.194,5.194,0,0,1,1.2,3.574,4.618,4.618,0,0,1-2.783,4.649" fill="#63fdcb"/>
    <path id="Trazado_98" data-name="Trazado 98" d="M101.42,3176.378v-1.361h21.062v-4.394h1.266v5.755Z" fill="#63fdcb"/>
    <path id="Trazado_99" data-name="Trazado 99" d="M123.321,3165.577a4.6,4.6,0,0,1-2.04,1.692,6.021,6.021,0,0,1-1.614.474,21.7,21.7,0,0,1-2.576.222q-1.629.062-4.507.064-3.13,0-4.729-.064a21.313,21.313,0,0,1-2.449-.206,5.693,5.693,0,0,1-1.518-.458,4.388,4.388,0,0,1-2.057-1.74,5.418,5.418,0,0,1-.728-2.909,5.292,5.292,0,0,1,.744-2.941,4.715,4.715,0,0,1,2.1-1.74,6.612,6.612,0,0,1,1.535-.428,21.48,21.48,0,0,1,2.465-.2q1.6-.065,4.634-.064c2.086,0,3.665.021,4.729.064a20.956,20.956,0,0,1,2.45.2,5.716,5.716,0,0,1,1.518.46,4.651,4.651,0,0,1,2.783,4.649,5.2,5.2,0,0,1-.743,2.925m-2.64-6.342a4.731,4.731,0,0,0-1.282-.364,21.313,21.313,0,0,0-2.245-.156q-1.5-.048-4.57-.048-2.973,0-4.475.048a22.574,22.574,0,0,0-2.277.156,4.79,4.79,0,0,0-1.314.364,3.5,3.5,0,0,0-1.549,1.25,3.859,3.859,0,0,0-.538,2.167,3.961,3.961,0,0,0,.523,2.15,3.527,3.527,0,0,0,1.534,1.3,5.388,5.388,0,0,0,1.28.332,21.2,21.2,0,0,0,2.261.157q1.518.05,4.555.049t4.554-.049a21.153,21.153,0,0,0,2.261-.157,5.406,5.406,0,0,0,1.282-.332,3.643,3.643,0,0,0,1.55-1.3,3.883,3.883,0,0,0,.537-2.15,3.4,3.4,0,0,0-2.087-3.417" fill="#63fdcb"/>
  </g>
</svg>
