<svg xmlns="http://www.w3.org/2000/svg" width="230.016" height="230.689" viewBox="0 0 230.016 230.689">
  <g id="Grupo_3" data-name="Grupo 3" transform="translate(-101.103 -654.126)">
    <path id="Trazado_25" data-name="Trazado 25" d="M330.869,654.376V796.866H199.328v32.893H330.869v10.964H188.364V785.917H319.92V665.325h-175.4V654.376Z" fill="#6802c1"/>
    <path id="Trazado_26" data-name="Trazado 26" d="M330.869,851.688v10.949H166.449V763.988H297.99V687.254H144.522V676.289H308.956v98.664H177.415v76.735Z" fill="#6802c1"/>
    <path id="Trazado_27" data-name="Trazado 27" d="M330.869,873.6v10.965H144.522V742.06H276.063V709.182H144.522V698.218H287.027v54.806H155.485V873.6Z" fill="#6802c1"/>
    <path id="Trazado_28" data-name="Trazado 28" d="M330.869,654.376V796.866H199.328v32.893H330.869v10.964H188.364V785.917H319.92V665.325h-175.4V654.376Z" fill="#6802c1" stroke="#5f3a8e" stroke-miterlimit="10" stroke-width="0.5"/>
    <path id="Trazado_29" data-name="Trazado 29" d="M330.869,851.688v10.949H166.449V763.988H297.99V687.254H144.522V676.289H308.956v98.664H177.415v76.735Z" fill="#6802c1" stroke="#5f3a8e" stroke-miterlimit="10" stroke-width="0.5"/>
    <path id="Trazado_30" data-name="Trazado 30" d="M330.869,873.6v10.965H144.522V742.06H276.063V709.182H144.522V698.218H287.027v54.806H155.485V873.6Z" fill="#6802c1" stroke="#5f3a8e" stroke-miterlimit="10" stroke-width="0.5"/>
    <path id="Trazado_31" data-name="Trazado 31" d="M121.281,708.457a5.7,5.7,0,0,1-1.564.459,22.58,22.58,0,0,1-2.515.2q-1.613.063-4.618.064-2.941,0-4.571-.064a20.428,20.428,0,0,1-2.545-.221,7.091,7.091,0,0,1-1.58-.443,4.615,4.615,0,0,1-2.785-4.65,5,5,0,0,1,1.234-3.542,3.811,3.811,0,0,1,1.249-.884,6.21,6.21,0,0,1,1.8-.443c.726-.085,1.671-.138,2.829-.159v1.36a22.664,22.664,0,0,0-2.515.11,5.574,5.574,0,0,0-1.484.348,2.67,2.67,0,0,0-.934.65,3.713,3.713,0,0,0-.886,2.592,3.891,3.891,0,0,0,.522,2.119,3.5,3.5,0,0,0,1.566,1.3,5.04,5.04,0,0,0,1.3.332q.791.109,2.308.158t4.492.046q2.975,0,4.507-.046a22.98,22.98,0,0,0,2.308-.158,5.556,5.556,0,0,0,1.314-.332,3.522,3.522,0,0,0,1.532-1.3,3.882,3.882,0,0,0,.523-2.119,3.77,3.77,0,0,0-.885-2.624,2.642,2.642,0,0,0-.95-.648,5.906,5.906,0,0,0-1.58-.349q-1.012-.111-2.689-.141v-1.33a25.674,25.674,0,0,1,3,.143,7.193,7.193,0,0,1,1.914.458,3.779,3.779,0,0,1,1.282.887,5.194,5.194,0,0,1,1.2,3.572,4.616,4.616,0,0,1-2.783,4.65" fill="#6802c1"/>
    <rect id="Rectángulo_5" data-name="Rectángulo 5" width="22.328" height="1.36" transform="translate(101.42 692.928)" fill="#6802c1"/>
    <path id="Trazado_32" data-name="Trazado 32" d="M121.281,687.647a5.663,5.663,0,0,1-1.564.458,22.287,22.287,0,0,1-2.515.206q-1.613.065-4.618.064-2.941,0-4.571-.064a19.819,19.819,0,0,1-2.545-.222,7.038,7.038,0,0,1-1.58-.442A4.614,4.614,0,0,1,101.1,683a5,5,0,0,1,1.234-3.543,3.825,3.825,0,0,1,1.249-.884,6.271,6.271,0,0,1,1.8-.444c.726-.083,1.671-.137,2.829-.158v1.36a22.907,22.907,0,0,0-2.515.11,5.49,5.49,0,0,0-1.484.35,2.666,2.666,0,0,0-.934.648,3.714,3.714,0,0,0-.886,2.593,3.887,3.887,0,0,0,.522,2.118,3.5,3.5,0,0,0,1.566,1.3,5.083,5.083,0,0,0,1.3.332q.791.109,2.308.158t4.492.048q2.975,0,4.507-.048a22.98,22.98,0,0,0,2.308-.158,5.607,5.607,0,0,0,1.314-.332,3.522,3.522,0,0,0,1.532-1.3,3.878,3.878,0,0,0,.523-2.118,3.771,3.771,0,0,0-.885-2.625,2.666,2.666,0,0,0-.95-.648,5.941,5.941,0,0,0-1.58-.35q-1.012-.106-2.689-.14v-1.33a25.674,25.674,0,0,1,3,.143,7.115,7.115,0,0,1,1.914.459,3.762,3.762,0,0,1,1.282.886,5.2,5.2,0,0,1,1.2,3.573,4.615,4.615,0,0,1-2.783,4.649" fill="#6802c1"/>
    <path id="Trazado_33" data-name="Trazado 33" d="M101.42,673.478v-1.359h21.062v-4.4h1.266v5.755Z" fill="#6802c1"/>
    <path id="Trazado_34" data-name="Trazado 34" d="M123.321,662.679a4.6,4.6,0,0,1-2.04,1.692,6.091,6.091,0,0,1-1.614.473,21.665,21.665,0,0,1-2.576.223q-1.629.063-4.507.062-3.13,0-4.729-.062a21.27,21.27,0,0,1-2.449-.207,5.693,5.693,0,0,1-1.518-.457,4.388,4.388,0,0,1-2.057-1.74,5.429,5.429,0,0,1-.728-2.91,5.305,5.305,0,0,1,.744-2.943,4.711,4.711,0,0,1,2.1-1.738,6.563,6.563,0,0,1,1.535-.427,21.472,21.472,0,0,1,2.465-.205q1.6-.065,4.634-.063c2.086,0,3.665.02,4.729.063a20.947,20.947,0,0,1,2.45.205,5.643,5.643,0,0,1,1.518.459,4.652,4.652,0,0,1,2.783,4.649,5.212,5.212,0,0,1-.743,2.926m-2.64-6.343a4.663,4.663,0,0,0-1.282-.363,21.677,21.677,0,0,0-2.245-.159q-1.5-.045-4.57-.046-2.973,0-4.475.046c-1,.032-1.76.087-2.277.159a4.724,4.724,0,0,0-1.314.363,3.5,3.5,0,0,0-1.549,1.25,3.862,3.862,0,0,0-.538,2.167,3.959,3.959,0,0,0,.523,2.15,3.527,3.527,0,0,0,1.534,1.3,5.536,5.536,0,0,0,1.28.33,20.609,20.609,0,0,0,2.261.158q1.518.048,4.555.048t4.554-.048a20.569,20.569,0,0,0,2.261-.158,5.554,5.554,0,0,0,1.282-.33,3.644,3.644,0,0,0,1.55-1.3,3.88,3.88,0,0,0,.537-2.15,3.4,3.4,0,0,0-2.087-3.417" fill="#6802c1"/>
  </g>
</svg>
