<svg xmlns="http://www.w3.org/2000/svg" width="229.765" height="230.203" viewBox="0 0 229.765 230.203">
  <g id="Grupo_10" data-name="Grupo 10" transform="translate(-101.103 -2849.189)">
    <path id="Trazado_83" data-name="Trazado 83" d="M308.94,3057.464v-98.649h.015v-87.7H166.449v98.665H297.99V3046.5h-.016v.016H144.522v10.948ZM177.4,2882.08H297.992v76.735H177.4Z" fill="#ff8773"/>
    <path id="Trazado_84" data-name="Trazado 84" d="M319.92,2860.152H155.47v120.594H287.028v54.8H144.523v-10.964H276.064v-32.892H144.523V2849.2H276.064v-.016h21.927v.016h32.877v230.187H144.523v-10.964h175.4Z" fill="#ff8773"/>
    <path id="Trazado_85" data-name="Trazado 85" d="M287.028,2893.045h-98.65v54.806h98.65Zm-87.7,10.966h76.735v32.877H199.328Z" fill="#ff8773"/>
    <path id="Trazado_86" data-name="Trazado 86" d="M121.281,2903.278a5.732,5.732,0,0,1-1.564.458,22.6,22.6,0,0,1-2.515.2q-1.613.063-4.618.063-2.941,0-4.571-.063a20.439,20.439,0,0,1-2.545-.221,7.2,7.2,0,0,1-1.58-.442,4.616,4.616,0,0,1-2.785-4.649,5,5,0,0,1,1.234-3.544,3.812,3.812,0,0,1,1.249-.884,6.275,6.275,0,0,1,1.8-.443c.726-.085,1.671-.138,2.829-.158v1.359a23.153,23.153,0,0,0-2.515.11,5.537,5.537,0,0,0-1.484.348,2.692,2.692,0,0,0-.934.648,3.722,3.722,0,0,0-.886,2.594,3.891,3.891,0,0,0,.522,2.119,3.5,3.5,0,0,0,1.566,1.3,5.007,5.007,0,0,0,1.3.33,22.827,22.827,0,0,0,2.308.16q1.52.045,4.492.046t4.507-.046a22.285,22.285,0,0,0,2.308-.16,5.515,5.515,0,0,0,1.314-.33,3.522,3.522,0,0,0,1.532-1.3,3.883,3.883,0,0,0,.523-2.119,3.768,3.768,0,0,0-.885-2.624,2.63,2.63,0,0,0-.95-.648,5.871,5.871,0,0,0-1.58-.349q-1.012-.111-2.689-.142v-1.328a25.509,25.509,0,0,1,3,.142,7.2,7.2,0,0,1,1.914.458,3.766,3.766,0,0,1,1.282.887,5.2,5.2,0,0,1,1.2,3.574,4.617,4.617,0,0,1-2.783,4.649" fill="#ff8773"/>
    <rect id="Rectángulo_13" data-name="Rectángulo 13" width="22.328" height="1.361" transform="translate(101.42 2887.748)" fill="#ff8773"/>
    <path id="Trazado_87" data-name="Trazado 87" d="M121.281,2882.467a5.665,5.665,0,0,1-1.564.458,22.313,22.313,0,0,1-2.515.206q-1.613.063-4.618.064-2.941,0-4.571-.064a19.982,19.982,0,0,1-2.545-.222,7.093,7.093,0,0,1-1.58-.442,4.614,4.614,0,0,1-2.785-4.649,5,5,0,0,1,1.234-3.543,3.8,3.8,0,0,1,1.249-.884,6.265,6.265,0,0,1,1.8-.444c.726-.084,1.671-.137,2.829-.158v1.36a22.9,22.9,0,0,0-2.515.11,5.652,5.652,0,0,0-1.484.348,2.722,2.722,0,0,0-.934.648,3.722,3.722,0,0,0-.886,2.594,3.89,3.89,0,0,0,.522,2.119,3.5,3.5,0,0,0,1.566,1.3,5.123,5.123,0,0,0,1.3.332q.791.109,2.308.158t4.492.047q2.975,0,4.507-.047a22.964,22.964,0,0,0,2.308-.158,5.654,5.654,0,0,0,1.314-.332,3.523,3.523,0,0,0,1.532-1.3,3.882,3.882,0,0,0,.523-2.119,3.768,3.768,0,0,0-.885-2.624,2.615,2.615,0,0,0-.95-.648,5.942,5.942,0,0,0-1.58-.35q-1.012-.109-2.689-.142v-1.328a25.239,25.239,0,0,1,3,.144,7.084,7.084,0,0,1,1.914.458,3.737,3.737,0,0,1,1.282.886,5.2,5.2,0,0,1,1.2,3.573,4.616,4.616,0,0,1-2.783,4.649" fill="#ff8773"/>
    <path id="Trazado_88" data-name="Trazado 88" d="M101.42,2868.3v-1.361h21.062v-4.394h1.266v5.755Z" fill="#ff8773"/>
    <path id="Trazado_89" data-name="Trazado 89" d="M123.321,2857.5a4.584,4.584,0,0,1-2.04,1.692,6.056,6.056,0,0,1-1.614.474,21.7,21.7,0,0,1-2.576.222q-1.629.064-4.507.063-3.13,0-4.729-.063a21.313,21.313,0,0,1-2.449-.206,5.649,5.649,0,0,1-1.518-.458,4.381,4.381,0,0,1-2.057-1.74,5.423,5.423,0,0,1-.728-2.909,5.294,5.294,0,0,1,.744-2.942,4.712,4.712,0,0,1,2.1-1.739,6.6,6.6,0,0,1,1.535-.428,21.525,21.525,0,0,1,2.465-.2q1.6-.064,4.634-.064c2.086,0,3.665.021,4.729.064a21,21,0,0,1,2.45.2,5.707,5.707,0,0,1,1.518.46,4.653,4.653,0,0,1,2.783,4.649,5.2,5.2,0,0,1-.743,2.925m-2.64-6.342a4.731,4.731,0,0,0-1.282-.364,21.525,21.525,0,0,0-2.245-.157q-1.5-.048-4.57-.047-2.973,0-4.475.047a22.809,22.809,0,0,0-2.277.157,4.79,4.79,0,0,0-1.314.364,3.5,3.5,0,0,0-1.549,1.249,3.863,3.863,0,0,0-.538,2.168,3.954,3.954,0,0,0,.523,2.149,3.527,3.527,0,0,0,1.534,1.3,5.483,5.483,0,0,0,1.28.332,20.738,20.738,0,0,0,2.261.156q1.518.051,4.555.05t4.554-.05a20.7,20.7,0,0,0,2.261-.156,5.5,5.5,0,0,0,1.282-.332,3.644,3.644,0,0,0,1.55-1.3,3.876,3.876,0,0,0,.537-2.149,3.4,3.4,0,0,0-2.087-3.417" fill="#ff8773"/>
  </g>
</svg>
