<svg xmlns="http://www.w3.org/2000/svg" width="229.766" height="230.188" viewBox="0 0 229.766 230.188">
  <g id="Grupo_9" data-name="Grupo 9" transform="translate(-101.103 -2541.117)">
    <path id="Trazado_75" data-name="Trazado 75" d="M144.522,2771.3H330.869V2541.118H144.522ZM319.9,2760.342H155.471V2552.066H319.9Z" fill="#f97373"/>
    <path id="Trazado_76" data-name="Trazado 76" d="M166.435,2749.377H308.94V2563.029H166.435Zm131.539-10.964H177.4v-76.719H297.974Zm0-87.685H177.4v-76.735H297.974Z" fill="#f97373"/>
    <path id="Trazado_77" data-name="Trazado 77" d="M188.364,2639.764h98.648v-54.806H188.364Zm87.7-10.965H199.328v-32.877h76.735Z" fill="#f97373"/>
    <path id="Trazado_78" data-name="Trazado 78" d="M188.364,2727.463h98.648v-54.822H188.364Zm87.7-10.964H199.328v-32.892h76.735Z" fill="#f97373"/>
    <path id="Trazado_79" data-name="Trazado 79" d="M121.281,2595.2a5.665,5.665,0,0,1-1.564.458,22.313,22.313,0,0,1-2.515.206q-1.613.063-4.618.064-2.941,0-4.571-.064a19.982,19.982,0,0,1-2.545-.222,7.093,7.093,0,0,1-1.58-.442,4.614,4.614,0,0,1-2.785-4.649,5,5,0,0,1,1.234-3.543,3.794,3.794,0,0,1,1.249-.884,6.265,6.265,0,0,1,1.8-.444c.726-.084,1.671-.137,2.829-.158v1.36a22.9,22.9,0,0,0-2.515.11,5.652,5.652,0,0,0-1.484.348,2.719,2.719,0,0,0-.934.648,3.722,3.722,0,0,0-.886,2.594,3.89,3.89,0,0,0,.522,2.119,3.5,3.5,0,0,0,1.566,1.3,5.132,5.132,0,0,0,1.3.332q.791.109,2.308.158t4.492.047q2.975,0,4.507-.047a22.98,22.98,0,0,0,2.308-.158,5.665,5.665,0,0,0,1.314-.332,3.523,3.523,0,0,0,1.532-1.3,3.881,3.881,0,0,0,.523-2.119,3.768,3.768,0,0,0-.885-2.624,2.615,2.615,0,0,0-.95-.648,5.856,5.856,0,0,0-1.58-.35q-1.012-.109-2.689-.142v-1.328a25.724,25.724,0,0,1,3,.142,7.151,7.151,0,0,1,1.914.46,3.733,3.733,0,0,1,1.282.886,5.2,5.2,0,0,1,1.2,3.573,4.616,4.616,0,0,1-2.783,4.649" fill="#f97373"/>
    <rect id="Rectángulo_12" data-name="Rectángulo 12" width="22.328" height="1.361" transform="translate(101.42 2579.668)" fill="#f97373"/>
    <path id="Trazado_80" data-name="Trazado 80" d="M121.281,2574.388a5.656,5.656,0,0,1-1.564.458,22.313,22.313,0,0,1-2.515.206q-1.613.063-4.618.064-2.941,0-4.571-.064a20.035,20.035,0,0,1-2.545-.222,7.041,7.041,0,0,1-1.58-.442,4.614,4.614,0,0,1-2.785-4.649,5,5,0,0,1,1.234-3.543,3.826,3.826,0,0,1,1.249-.884,6.273,6.273,0,0,1,1.8-.444c.726-.084,1.671-.137,2.829-.156v1.358a22.914,22.914,0,0,0-2.515.11,5.651,5.651,0,0,0-1.484.348,2.745,2.745,0,0,0-.934.648,3.723,3.723,0,0,0-.886,2.593,3.9,3.9,0,0,0,.522,2.121,3.506,3.506,0,0,0,1.566,1.3,5,5,0,0,0,1.3.332q.791.111,2.308.158t4.492.048q2.975,0,4.507-.048a22.688,22.688,0,0,0,2.308-.158,5.509,5.509,0,0,0,1.314-.332,3.524,3.524,0,0,0,1.532-1.3,3.893,3.893,0,0,0,.523-2.121,3.769,3.769,0,0,0-.885-2.623,2.642,2.642,0,0,0-.95-.648,5.875,5.875,0,0,0-1.58-.348q-1.012-.112-2.689-.142v-1.33a25.441,25.441,0,0,1,3,.144,7.047,7.047,0,0,1,1.914.458,3.76,3.76,0,0,1,1.282.886,5.2,5.2,0,0,1,1.2,3.573,4.615,4.615,0,0,1-2.783,4.649" fill="#f97373"/>
    <path id="Trazado_81" data-name="Trazado 81" d="M101.42,2560.219v-1.36h21.062v-4.4h1.266v5.755Z" fill="#f97373"/>
    <path id="Trazado_82" data-name="Trazado 82" d="M123.321,2549.419a4.6,4.6,0,0,1-2.04,1.692,6.091,6.091,0,0,1-1.614.475,22.4,22.4,0,0,1-2.576.222q-1.629.063-4.507.062-3.13,0-4.729-.062a21.829,21.829,0,0,1-2.449-.206,5.658,5.658,0,0,1-1.518-.459,4.388,4.388,0,0,1-2.057-1.74,5.42,5.42,0,0,1-.728-2.91,5.294,5.294,0,0,1,.744-2.941,4.714,4.714,0,0,1,2.1-1.74,6.662,6.662,0,0,1,1.535-.427,21.71,21.71,0,0,1,2.465-.205q1.6-.064,4.634-.063c2.086,0,3.665.02,4.729.063a21.176,21.176,0,0,1,2.45.205,5.645,5.645,0,0,1,1.518.461,4.65,4.65,0,0,1,2.783,4.647,5.205,5.205,0,0,1-.743,2.926m-2.64-6.341a4.67,4.67,0,0,0-1.282-.365,21.321,21.321,0,0,0-2.245-.157q-1.5-.048-4.57-.048-2.973,0-4.475.048a22.587,22.587,0,0,0-2.277.157,4.73,4.73,0,0,0-1.314.365,3.476,3.476,0,0,0-1.549,1.25,3.851,3.851,0,0,0-.538,2.165,3.953,3.953,0,0,0,.523,2.15,3.528,3.528,0,0,0,1.534,1.3,5.47,5.47,0,0,0,1.28.332,20.879,20.879,0,0,0,2.261.158q1.518.048,4.555.048t4.554-.048a20.838,20.838,0,0,0,2.261-.158,5.489,5.489,0,0,0,1.282-.332,3.645,3.645,0,0,0,1.55-1.3,3.874,3.874,0,0,0,.537-2.15,3.4,3.4,0,0,0-2.087-3.415" fill="#f97373"/>
  </g>
</svg>
