<svg xmlns="http://www.w3.org/2000/svg" width="229.766" height="230.205" viewBox="0 0 229.766 230.205">
  <g id="Grupo_7" data-name="Grupo 7" transform="translate(-101.103 -1924.951)">
    <path id="Trazado_61" data-name="Trazado 61" d="M166.449,1946.881v98.646h-.014v87.7H308.94v-98.664H177.4v-76.717h.015v-.016H330.869v-10.948Zm131.541,175.38H177.4v-76.734H297.99Z" fill="#b17df4"/>
    <path id="Trazado_62" data-name="Trazado 62" d="M155.47,2144.191H319.92V2023.6H188.363v-54.806H330.868v10.964H199.327v32.893H330.868v142.49H199.327v.016H177.4v-.016H144.523V1924.951H330.868v10.964H155.47Z" fill="#b17df4"/>
    <path id="Trazado_63" data-name="Trazado 63" d="M188.364,2111.3h98.648v-54.806H188.364Zm87.7-10.964H199.328v-32.878h76.735Z" fill="#b17df4"/>
    <path id="Trazado_64" data-name="Trazado 64" d="M121.281,1979.04a5.631,5.631,0,0,1-1.564.458,22.553,22.553,0,0,1-2.515.206q-1.613.064-4.618.063-2.941,0-4.571-.063a20.219,20.219,0,0,1-2.545-.222,6.99,6.99,0,0,1-1.58-.442,4.616,4.616,0,0,1-2.785-4.649,5,5,0,0,1,1.234-3.543,3.813,3.813,0,0,1,1.249-.885,6.275,6.275,0,0,1,1.8-.443c.726-.085,1.671-.138,2.829-.157v1.358a22.863,22.863,0,0,0-2.515.111,5.608,5.608,0,0,0-1.484.348,2.708,2.708,0,0,0-.934.649,3.717,3.717,0,0,0-.886,2.594,3.9,3.9,0,0,0,.522,2.119,3.513,3.513,0,0,0,1.566,1.3,5.006,5.006,0,0,0,1.3.332,22.945,22.945,0,0,0,2.308.158q1.52.048,4.492.048t4.507-.048a22.4,22.4,0,0,0,2.308-.158,5.515,5.515,0,0,0,1.314-.332,3.532,3.532,0,0,0,1.532-1.3,3.891,3.891,0,0,0,.523-2.119,3.774,3.774,0,0,0-.885-2.626,2.655,2.655,0,0,0-.95-.648,5.908,5.908,0,0,0-1.58-.348q-1.012-.109-2.689-.142v-1.329a25.685,25.685,0,0,1,3,.143,7.116,7.116,0,0,1,1.914.458,3.762,3.762,0,0,1,1.282.886,5.2,5.2,0,0,1,1.2,3.574,4.617,4.617,0,0,1-2.783,4.649" fill="#b17df4"/>
    <rect id="Rectángulo_10" data-name="Rectángulo 10" width="22.328" height="1.36" transform="translate(101.42 1963.512)" fill="#b17df4"/>
    <path id="Trazado_65" data-name="Trazado 65" d="M121.281,1958.229a5.593,5.593,0,0,1-1.564.46,22.757,22.757,0,0,1-2.515.206q-1.613.063-4.618.062-2.941,0-4.571-.062a20.569,20.569,0,0,1-2.545-.222,7.037,7.037,0,0,1-1.58-.444,4.612,4.612,0,0,1-2.785-4.649,5,5,0,0,1,1.234-3.541,3.834,3.834,0,0,1,1.249-.886,6.242,6.242,0,0,1,1.8-.442c.726-.084,1.671-.137,2.829-.158v1.358a22.586,22.586,0,0,0-2.515.112,5.5,5.5,0,0,0-1.484.348,2.693,2.693,0,0,0-.934.648,3.716,3.716,0,0,0-.886,2.593,3.9,3.9,0,0,0,.522,2.12,3.512,3.512,0,0,0,1.566,1.3,5,5,0,0,0,1.3.332,22.842,22.842,0,0,0,2.308.159q1.52.047,4.492.047t4.507-.047a22.3,22.3,0,0,0,2.308-.159,5.5,5.5,0,0,0,1.314-.332,3.531,3.531,0,0,0,1.532-1.3,3.888,3.888,0,0,0,.523-2.12,3.774,3.774,0,0,0-.885-2.625,2.637,2.637,0,0,0-.95-.646,5.87,5.87,0,0,0-1.58-.35q-1.012-.109-2.689-.142v-1.328a25.505,25.505,0,0,1,3,.142,7.2,7.2,0,0,1,1.914.458,3.791,3.791,0,0,1,1.282.886,5.2,5.2,0,0,1,1.2,3.573,4.613,4.613,0,0,1-2.783,4.649" fill="#b17df4"/>
    <path id="Trazado_66" data-name="Trazado 66" d="M101.42,1944.061v-1.36h21.062v-4.4h1.266v5.755Z" fill="#b17df4"/>
    <path id="Trazado_67" data-name="Trazado 67" d="M123.321,1933.26a4.6,4.6,0,0,1-2.04,1.694,6.129,6.129,0,0,1-1.614.474,21.761,21.761,0,0,1-2.576.221q-1.629.063-4.507.063-3.13,0-4.729-.063a21.119,21.119,0,0,1-2.449-.206,5.654,5.654,0,0,1-1.518-.458,4.384,4.384,0,0,1-2.057-1.741,5.419,5.419,0,0,1-.728-2.909,5.3,5.3,0,0,1,.744-2.942,4.711,4.711,0,0,1,2.1-1.738,6.56,6.56,0,0,1,1.535-.427,21.483,21.483,0,0,1,2.465-.205q1.6-.064,4.634-.063c2.086,0,3.665.02,4.729.063a20.958,20.958,0,0,1,2.45.205,5.641,5.641,0,0,1,1.518.459,4.651,4.651,0,0,1,2.783,4.648,5.2,5.2,0,0,1-.743,2.925m-2.64-6.341a4.7,4.7,0,0,0-1.282-.363,20.926,20.926,0,0,0-2.245-.158q-1.5-.048-4.57-.047-2.973,0-4.475.047a22.161,22.161,0,0,0-2.277.158,4.758,4.758,0,0,0-1.314.363,3.494,3.494,0,0,0-1.549,1.25,3.861,3.861,0,0,0-.538,2.166,3.958,3.958,0,0,0,.523,2.151,3.541,3.541,0,0,0,1.534,1.3,5.536,5.536,0,0,0,1.28.33,20.628,20.628,0,0,0,2.261.158q1.518.048,4.555.048t4.554-.048a20.588,20.588,0,0,0,2.261-.158,5.554,5.554,0,0,0,1.282-.33,3.659,3.659,0,0,0,1.55-1.3,3.879,3.879,0,0,0,.537-2.151,3.4,3.4,0,0,0-2.087-3.416" fill="#b17df4"/>
  </g>
</svg>
