<svg xmlns="http://www.w3.org/2000/svg" width="229.766" height="230.191" viewBox="0 0 229.766 230.191">
  <g id="Grupo_8" data-name="Grupo 8" transform="translate(-101.103 -2233.037)">
    <path id="Trazado_68" data-name="Trazado 68" d="M330.869,2233.038v230.189H319.9V2244H144.522v-10.965Z" fill="#ed76f4"/>
    <path id="Trazado_69" data-name="Trazado 69" d="M308.94,2254.951v208.276H297.975V2265.914H144.522v-10.963Z" fill="#ed76f4"/>
    <path id="Trazado_70" data-name="Trazado 70" d="M287.011,2276.879v186.349H276.064V2287.844H144.523v-10.965Z" fill="#ed76f4"/>
    <path id="Trazado_71" data-name="Trazado 71" d="M121.281,2287.119a5.656,5.656,0,0,1-1.564.458,22.488,22.488,0,0,1-2.515.206q-1.613.062-4.618.064-2.941,0-4.571-.064a20.219,20.219,0,0,1-2.545-.222,7.028,7.028,0,0,1-1.58-.442,4.616,4.616,0,0,1-2.785-4.649,5,5,0,0,1,1.234-3.543,3.8,3.8,0,0,1,1.249-.884,6.241,6.241,0,0,1,1.8-.444c.726-.085,1.671-.137,2.829-.156v1.358a22.976,22.976,0,0,0-2.515.11,5.622,5.622,0,0,0-1.484.348,2.719,2.719,0,0,0-.934.648,3.719,3.719,0,0,0-.886,2.593,3.9,3.9,0,0,0,.522,2.121,3.507,3.507,0,0,0,1.566,1.3,5.081,5.081,0,0,0,1.3.332q.791.111,2.308.158t4.492.048q2.975,0,4.507-.048a22.688,22.688,0,0,0,2.308-.158,5.6,5.6,0,0,0,1.314-.332,3.525,3.525,0,0,0,1.532-1.3,3.894,3.894,0,0,0,.523-2.121,3.772,3.772,0,0,0-.885-2.624,2.655,2.655,0,0,0-.95-.648,5.922,5.922,0,0,0-1.58-.348q-1.012-.112-2.689-.142v-1.329a25.441,25.441,0,0,1,3,.144,7.047,7.047,0,0,1,1.914.458,3.731,3.731,0,0,1,1.282.885,5.2,5.2,0,0,1,1.2,3.574,4.617,4.617,0,0,1-2.783,4.649" fill="#ed76f4"/>
    <rect id="Rectángulo_11" data-name="Rectángulo 11" width="22.328" height="1.36" transform="translate(101.42 2271.591)" fill="#ed76f4"/>
    <path id="Trazado_72" data-name="Trazado 72" d="M121.281,2266.309a5.631,5.631,0,0,1-1.564.458,22.558,22.558,0,0,1-2.515.206q-1.613.065-4.618.064-2.941,0-4.571-.064a20.219,20.219,0,0,1-2.545-.222,6.99,6.99,0,0,1-1.58-.442,4.616,4.616,0,0,1-2.785-4.649,5,5,0,0,1,1.234-3.543,3.812,3.812,0,0,1,1.249-.884,6.241,6.241,0,0,1,1.8-.444c.726-.085,1.671-.137,2.829-.157v1.359a22.9,22.9,0,0,0-2.515.11,5.613,5.613,0,0,0-1.484.348,2.708,2.708,0,0,0-.934.649,3.72,3.72,0,0,0-.886,2.594,3.9,3.9,0,0,0,.522,2.119,3.507,3.507,0,0,0,1.566,1.3,4.914,4.914,0,0,0,1.3.332,22.945,22.945,0,0,0,2.308.158q1.52.048,4.492.048t4.507-.048a22.4,22.4,0,0,0,2.308-.158,5.407,5.407,0,0,0,1.314-.332,3.525,3.525,0,0,0,1.532-1.3,3.887,3.887,0,0,0,.523-2.119,3.774,3.774,0,0,0-.885-2.626,2.667,2.667,0,0,0-.95-.648,5.952,5.952,0,0,0-1.58-.348q-1.012-.109-2.689-.142V2256.6a25.449,25.449,0,0,1,3,.144,7.047,7.047,0,0,1,1.914.458,3.761,3.761,0,0,1,1.282.885,5.2,5.2,0,0,1,1.2,3.574,4.617,4.617,0,0,1-2.783,4.649" fill="#ed76f4"/>
    <path id="Trazado_73" data-name="Trazado 73" d="M101.42,2252.14v-1.36h21.062v-4.4h1.266v5.755Z" fill="#ed76f4"/>
    <path id="Trazado_74" data-name="Trazado 74" d="M123.321,2241.339a4.585,4.585,0,0,1-2.04,1.692,6.1,6.1,0,0,1-1.614.476,21.915,21.915,0,0,1-2.576.222q-1.629.062-4.507.062-3.13,0-4.729-.062a21.313,21.313,0,0,1-2.449-.206,5.729,5.729,0,0,1-1.518-.458,4.4,4.4,0,0,1-2.057-1.742,5.416,5.416,0,0,1-.728-2.909,5.3,5.3,0,0,1,.744-2.941,4.715,4.715,0,0,1,2.1-1.74,6.71,6.71,0,0,1,1.535-.428,22.085,22.085,0,0,1,2.465-.2q1.6-.067,4.634-.066c2.086,0,3.665.021,4.729.066a21.541,21.541,0,0,1,2.45.2,5.672,5.672,0,0,1,1.518.461,4.651,4.651,0,0,1,2.783,4.648,5.2,5.2,0,0,1-.743,2.925m-2.64-6.34a4.6,4.6,0,0,0-1.282-.364,21.2,21.2,0,0,0-2.245-.158q-1.5-.048-4.57-.047-2.973,0-4.475.047a22.454,22.454,0,0,0-2.277.158,4.657,4.657,0,0,0-1.314.364,3.491,3.491,0,0,0-1.549,1.249,3.851,3.851,0,0,0-.538,2.166,3.951,3.951,0,0,0,.523,2.15,3.522,3.522,0,0,0,1.534,1.3,5.487,5.487,0,0,0,1.28.33,20.628,20.628,0,0,0,2.261.158q1.518.048,4.555.048t4.554-.048a20.588,20.588,0,0,0,2.261-.158,5.505,5.505,0,0,0,1.282-.33,3.639,3.639,0,0,0,1.55-1.3,3.873,3.873,0,0,0,.537-2.15,3.4,3.4,0,0,0-2.087-3.415" fill="#ed76f4"/>
  </g>
</svg>
