<svg xmlns="http://www.w3.org/2000/svg" width="230.016" height="230.689" viewBox="0 0 230.016 230.689">
  <g id="Grupo_4" data-name="Grupo 4" transform="translate(-101.103 -922.361)">
    <path id="Trazado_35" data-name="Trazado 35" d="M330.869,922.611V1152.8H144.522v-10.949H319.9V933.576H144.522V922.611Z" fill="#a304a3" stroke="#a2388b" stroke-miterlimit="10" stroke-width="0.5"/>
    <path id="Trazado_36" data-name="Trazado 36" d="M287.011,966.453v54.806H144.523V1010.31H276.064V977.417H144.523V966.453Z" fill="#a304a3" stroke="#a2388b" stroke-miterlimit="10" stroke-width="0.5"/>
    <path id="Trazado_37" data-name="Trazado 37" d="M287.011,1054.152v54.806H144.523v-10.964H276.064v-32.877H144.523v-10.965Z" fill="#a304a3" stroke="#a2388b" stroke-miterlimit="10" stroke-width="0.5"/>
    <path id="Trazado_38" data-name="Trazado 38" d="M308.94,944.54v186.347H144.522v-10.964H297.975v-76.735H144.522v-10.964H297.975V955.5H144.522V944.54Z" fill="#a304a3" stroke="#a2388b" stroke-miterlimit="10" stroke-width="0.5"/>
    <path id="Trazado_39" data-name="Trazado 39" d="M330.869,922.611V1152.8H144.522v-10.949H319.9V933.576H144.522V922.611Z" fill="#a304a3"/>
    <path id="Trazado_40" data-name="Trazado 40" d="M287.011,966.453v54.806H144.523V1010.31H276.064V977.417H144.523V966.453Z" fill="#a304a3"/>
    <path id="Trazado_41" data-name="Trazado 41" d="M287.011,1054.152v54.806H144.523v-10.964H276.064v-32.877H144.523v-10.965Z" fill="#a304a3"/>
    <path id="Trazado_42" data-name="Trazado 42" d="M308.94,944.54v186.347H144.522v-10.964H297.975v-76.735H144.522v-10.964H297.975V955.5H144.522V944.54Z" fill="#a304a3"/>
    <path id="Trazado_43" data-name="Trazado 43" d="M121.281,976.692a5.732,5.732,0,0,1-1.564.459,23.284,23.284,0,0,1-2.515.206q-1.613.063-4.618.062-2.941,0-4.571-.062a20.583,20.583,0,0,1-2.545-.222,7.143,7.143,0,0,1-1.58-.443,4.614,4.614,0,0,1-2.785-4.649,5,5,0,0,1,1.234-3.542,3.831,3.831,0,0,1,1.249-.886,6.245,6.245,0,0,1,1.8-.442c.726-.084,1.671-.139,2.829-.158v1.36a22.666,22.666,0,0,0-2.515.11,5.537,5.537,0,0,0-1.484.348,2.679,2.679,0,0,0-.934.648,3.714,3.714,0,0,0-.886,2.593,3.9,3.9,0,0,0,.522,2.12,3.513,3.513,0,0,0,1.566,1.3,5.04,5.04,0,0,0,1.3.332q.791.109,2.308.158t4.492.048q2.975,0,4.507-.048a22.688,22.688,0,0,0,2.308-.158,5.556,5.556,0,0,0,1.314-.332,3.531,3.531,0,0,0,1.532-1.3,3.89,3.89,0,0,0,.523-2.12,3.771,3.771,0,0,0-.885-2.625,2.667,2.667,0,0,0-.95-.648,5.911,5.911,0,0,0-1.58-.348q-1.012-.109-2.689-.142v-1.328a25.473,25.473,0,0,1,3,.143,7.158,7.158,0,0,1,1.914.457,3.777,3.777,0,0,1,1.282.886,5.2,5.2,0,0,1,1.2,3.574,4.616,4.616,0,0,1-2.783,4.649" fill="#a304a3"/>
    <rect id="Rectángulo_6" data-name="Rectángulo 6" width="22.328" height="1.36" transform="translate(101.42 961.164)" fill="#a304a3"/>
    <path id="Trazado_44" data-name="Trazado 44" d="M121.281,955.882a5.7,5.7,0,0,1-1.564.459,22.593,22.593,0,0,1-2.515.205q-1.613.066-4.618.064-2.941,0-4.571-.064a20.437,20.437,0,0,1-2.545-.221,7.039,7.039,0,0,1-1.58-.443,4.614,4.614,0,0,1-2.785-4.648,5,5,0,0,1,1.234-3.543,3.8,3.8,0,0,1,1.249-.885,6.275,6.275,0,0,1,1.8-.443c.726-.085,1.671-.138,2.829-.159v1.36a22.626,22.626,0,0,0-2.515.111,5.5,5.5,0,0,0-1.484.348,2.655,2.655,0,0,0-.934.649,3.715,3.715,0,0,0-.886,2.594,3.888,3.888,0,0,0,.522,2.117,3.5,3.5,0,0,0,1.566,1.3,5.041,5.041,0,0,0,1.3.332q.791.109,2.308.158t4.492.046q2.975,0,4.507-.046a23,23,0,0,0,2.308-.158,5.557,5.557,0,0,0,1.314-.332,3.522,3.522,0,0,0,1.532-1.3,3.879,3.879,0,0,0,.523-2.117,3.772,3.772,0,0,0-.885-2.626,2.642,2.642,0,0,0-.95-.648,5.906,5.906,0,0,0-1.58-.349q-1.012-.108-2.689-.141v-1.33a25.674,25.674,0,0,1,3,.143,7.2,7.2,0,0,1,1.914.458,3.779,3.779,0,0,1,1.282.887,5.2,5.2,0,0,1,1.2,3.574,4.615,4.615,0,0,1-2.783,4.648" fill="#a304a3"/>
    <path id="Trazado_45" data-name="Trazado 45" d="M101.42,941.713v-1.359h21.062v-4.4h1.266v5.755Z" fill="#a304a3"/>
    <path id="Trazado_46" data-name="Trazado 46" d="M123.321,930.912a4.589,4.589,0,0,1-2.04,1.694,6.131,6.131,0,0,1-1.614.474,21.715,21.715,0,0,1-2.576.222q-1.629.062-4.507.062-3.13,0-4.729-.062a21.33,21.33,0,0,1-2.449-.206,5.729,5.729,0,0,1-1.518-.458,4.392,4.392,0,0,1-2.057-1.742,5.416,5.416,0,0,1-.728-2.909,5.294,5.294,0,0,1,.744-2.941,4.706,4.706,0,0,1,2.1-1.739,6.61,6.61,0,0,1,1.535-.427,21.713,21.713,0,0,1,2.465-.205q1.6-.063,4.634-.063c2.086,0,3.665.021,4.729.063a21.179,21.179,0,0,1,2.45.205,5.643,5.643,0,0,1,1.518.459,4.651,4.651,0,0,1,2.783,4.648,5.2,5.2,0,0,1-.743,2.925m-2.64-6.341a4.7,4.7,0,0,0-1.282-.363,21.176,21.176,0,0,0-2.245-.158q-1.5-.047-4.57-.047-2.973,0-4.475.047a22.433,22.433,0,0,0-2.277.158,4.76,4.76,0,0,0-1.314.363,3.494,3.494,0,0,0-1.549,1.25,3.861,3.861,0,0,0-.538,2.166,3.958,3.958,0,0,0,.523,2.151,3.527,3.527,0,0,0,1.534,1.3,5.484,5.484,0,0,0,1.28.33,20.609,20.609,0,0,0,2.261.158q1.518.048,4.555.048t4.554-.048a20.569,20.569,0,0,0,2.261-.158,5.5,5.5,0,0,0,1.282-.33,3.644,3.644,0,0,0,1.55-1.3,3.879,3.879,0,0,0,.537-2.151,3.4,3.4,0,0,0-2.087-3.416" fill="#a304a3"/>
  </g>
</svg>
