<svg xmlns="http://www.w3.org/2000/svg" width="229.766" height="230.205" viewBox="0 0 229.766 230.205">
  <g id="Grupo_12" data-name="Grupo 12" transform="translate(-101.103 -384.548)">
    <path id="Trazado_100" data-name="Trazado 100" d="M330.869,581.859v10.965H144.522V581.859h87.683V417.442H144.522V406.477H243.17V581.859Z" fill="#0202c6"/>
    <rect id="Rectángulo_16" data-name="Rectángulo 16" width="186.347" height="10.965" transform="translate(144.522 603.789)" fill="#0202c6"/>
    <path id="Trazado_101" data-name="Trazado 101" d="M330.869,559.947V570.9H254.134V395.513H144.522V384.548H265.1v175.4Z" fill="#0202c6"/>
    <path id="Trazado_102" data-name="Trazado 102" d="M221.24,428.406V570.9H144.523V559.947h65.77V439.37h-65.77V428.406Z" fill="#0202c6"/>
    <path id="Trazado_103" data-name="Trazado 103" d="M254.134,570.895h76.735V559.947H265.1v-175.4H144.522v10.964H254.134Z" fill="#0202c6"/>
    <path id="Trazado_104" data-name="Trazado 104" d="M232.2,570.895h10.964V406.477H144.523v10.964H232.2Z" fill="#0202c6"/>
    <path id="Trazado_105" data-name="Trazado 105" d="M221.24,428.406H144.523V439.37h65.77V559.947h-65.77V570.9H221.24Z" fill="#0202c6"/>
    <path id="Trazado_106" data-name="Trazado 106" d="M121.281,438.643a5.732,5.732,0,0,1-1.564.458,22.344,22.344,0,0,1-2.515.2q-1.613.066-4.618.064-2.941,0-4.571-.064a20.048,20.048,0,0,1-2.545-.221,7.038,7.038,0,0,1-1.58-.442,4.616,4.616,0,0,1-2.785-4.649,5,5,0,0,1,1.234-3.543,3.811,3.811,0,0,1,1.249-.884,6.24,6.24,0,0,1,1.8-.444c.726-.083,1.671-.137,2.829-.158v1.359a22.875,22.875,0,0,0-2.515.111,5.457,5.457,0,0,0-1.484.349,2.666,2.666,0,0,0-.934.648,3.715,3.715,0,0,0-.886,2.594,3.883,3.883,0,0,0,.522,2.117,3.5,3.5,0,0,0,1.566,1.3,5,5,0,0,0,1.3.332q.791.109,2.308.158t4.492.048q2.975,0,4.507-.048a22.987,22.987,0,0,0,2.308-.158,5.508,5.508,0,0,0,1.314-.332,3.522,3.522,0,0,0,1.532-1.3,3.875,3.875,0,0,0,.523-2.117,3.772,3.772,0,0,0-.885-2.626,2.667,2.667,0,0,0-.95-.648,5.945,5.945,0,0,0-1.58-.349q-1.012-.108-2.689-.141v-1.329a25.712,25.712,0,0,1,3,.142,7.112,7.112,0,0,1,1.914.46,3.746,3.746,0,0,1,1.282.885,5.2,5.2,0,0,1,1.2,3.574,4.617,4.617,0,0,1-2.783,4.649" fill="#0202c6"/>
    <rect id="Rectángulo_17" data-name="Rectángulo 17" width="22.328" height="1.36" transform="translate(101.42 423.114)" fill="#0202c6"/>
    <path id="Trazado_107" data-name="Trazado 107" d="M121.281,417.832a5.73,5.73,0,0,1-1.564.46,23.292,23.292,0,0,1-2.515.206q-1.613.063-4.618.062-2.941,0-4.571-.062a20.6,20.6,0,0,1-2.545-.222,7.087,7.087,0,0,1-1.58-.444,4.612,4.612,0,0,1-2.785-4.648,5,5,0,0,1,1.234-3.542,3.816,3.816,0,0,1,1.249-.886,6.243,6.243,0,0,1,1.8-.442c.726-.084,1.671-.139,2.829-.158v1.36a22.42,22.42,0,0,0-2.515.11,5.5,5.5,0,0,0-1.484.348,2.692,2.692,0,0,0-.934.648,3.714,3.714,0,0,0-.886,2.593,3.9,3.9,0,0,0,.522,2.12,3.521,3.521,0,0,0,1.566,1.3,5.084,5.084,0,0,0,1.3.331q.791.109,2.308.158t4.492.048q2.975,0,4.507-.048a22.686,22.686,0,0,0,2.308-.158,5.607,5.607,0,0,0,1.314-.331,3.54,3.54,0,0,0,1.532-1.3,3.89,3.89,0,0,0,.523-2.12,3.771,3.771,0,0,0-.885-2.625,2.667,2.667,0,0,0-.95-.648,5.874,5.874,0,0,0-1.58-.348q-1.012-.109-2.689-.142v-1.328a25.5,25.5,0,0,1,3,.142,7.2,7.2,0,0,1,1.914.458,3.763,3.763,0,0,1,1.282.886,5.2,5.2,0,0,1,1.2,3.574,4.613,4.613,0,0,1-2.783,4.648" fill="#0202c6"/>
    <path id="Trazado_108" data-name="Trazado 108" d="M101.42,403.664V402.3h21.062v-4.4h1.266v5.755Z" fill="#0202c6"/>
    <path id="Trazado_109" data-name="Trazado 109" d="M123.321,392.863a4.585,4.585,0,0,1-2.04,1.692,6.017,6.017,0,0,1-1.614.475,21.5,21.5,0,0,1-2.576.222q-1.629.063-4.507.062-3.13,0-4.729-.062a21.093,21.093,0,0,1-2.449-.206,5.621,5.621,0,0,1-1.518-.459,4.382,4.382,0,0,1-2.057-1.74,5.418,5.418,0,0,1-.728-2.909,5.3,5.3,0,0,1,.744-2.942,4.7,4.7,0,0,1,2.1-1.738,6.61,6.61,0,0,1,1.535-.429,21.99,21.99,0,0,1,2.465-.2q1.6-.063,4.634-.064c2.086,0,3.665.022,4.729.064a21.447,21.447,0,0,1,2.45.2,5.678,5.678,0,0,1,1.518.461,4.65,4.65,0,0,1,2.783,4.648,5.2,5.2,0,0,1-.743,2.925m-2.64-6.341a4.664,4.664,0,0,0-1.282-.363,21.135,21.135,0,0,0-2.245-.159q-1.5-.048-4.57-.048-2.973,0-4.475.048a22.391,22.391,0,0,0-2.277.159,4.725,4.725,0,0,0-1.314.363,3.487,3.487,0,0,0-1.549,1.25,3.861,3.861,0,0,0-.538,2.166,3.948,3.948,0,0,0,.523,2.149,3.515,3.515,0,0,0,1.534,1.3,5.433,5.433,0,0,0,1.28.332,20.611,20.611,0,0,0,2.261.158q1.518.048,4.555.048t4.554-.048a20.571,20.571,0,0,0,2.261-.158,5.451,5.451,0,0,0,1.282-.332,3.631,3.631,0,0,0,1.55-1.3,3.87,3.87,0,0,0,.537-2.149,3.4,3.4,0,0,0-2.087-3.416" fill="#0202c6"/>
    <path id="Trazado_110" data-name="Trazado 110" d="M330.869,581.859v10.965H144.522V581.859h87.683V417.442H144.522V406.477H243.17V581.859Z" fill="#0202c6"/>
    <rect id="Rectángulo_18" data-name="Rectángulo 18" width="186.347" height="10.965" transform="translate(144.522 603.789)" fill="#0202c6"/>
    <path id="Trazado_111" data-name="Trazado 111" d="M330.869,559.947V570.9H254.134V395.513H144.522V384.548H265.1v175.4Z" fill="#0202c6"/>
    <path id="Trazado_112" data-name="Trazado 112" d="M221.24,428.406V570.9H144.523V559.947h65.77V439.37h-65.77V428.406Z" fill="#0202c6"/>
    <path id="Trazado_113" data-name="Trazado 113" d="M243.168,406.491v64.717H232.205V417.455H144.52V406.491Z" fill="#0202c6"/>
    <path id="Trazado_114" data-name="Trazado 114" d="M221.24,428.419v42.788H210.292V439.384h-65.77V428.419Z" fill="#0202c6"/>
  </g>
</svg>
